<svg version="1.0" xmlns="http://www.w3.org/2000/svg" width="100" height="100" xml:space="preserve"><path fill="#263238" d="M10 46.364h10.909v7.271H10z"/><path fill="#8BC34A" d="M28.182 46.364h10.909v7.271H28.182z"/><path fill="#263238" d="M46.364 46.364h7.272v7.271h-7.272z"/><path fill="#8BC34A" d="M60.908 46.364h10.909v7.271H60.908z"/><path fill="#263238" d="M79.091 46.364h10.908v7.271H79.091zM46.364 79.091h7.272v10.908h-7.272z"/><path fill="#8BC34A" d="M46.364 60.908h7.272v10.909h-7.272zM46.364 28.182h7.272V39.09h-7.272z"/><path fill="#263238" d="M46.364 10h7.272v10.909h-7.272z"/><path fill="#8BC34A" d="M82.285 77.132 90 84.848l-5.144 5.142-7.713-7.716z"/><path fill="#263238" d="M69.431 64.286 77.144 72l-5.141 5.142-7.713-7.713zM27.995 22.853l7.716 7.713-5.142 5.145-7.717-7.713z"/><path fill="#8BC34A" d="m15.142 10 7.713 7.712-5.142 5.143-7.714-7.713zM77.135 17.715l7.717-7.713 5.14 5.144-7.717 7.713z"/><path fill="#263238" d="m64.288 30.57 7.713-7.712 5.142 5.14-7.713 7.714zM22.855 72.002l7.716-7.716 5.144 5.144L28 77.146z"/><path fill="#8BC34A" d="m9.999 84.859 7.712-7.713 5.142 5.143L15.141 90z"/></svg>